<?xml version="1.0" encoding="UTF-8"?>
<!DOCTYPE svg PUBLIC "-//W3C//DTD SVG 1.1//EN" "http://www.w3.org/Graphics/SVG/1.1/DTD/svg11.dtd">
<svg xmlns="http://www.w3.org/2000/svg" version="1.1" width="125px" height="124px" style="shape-rendering:geometricPrecision; text-rendering:geometricPrecision; image-rendering:optimizeQuality; fill-rule:evenodd; clip-rule:evenodd" xmlns:xlink="http://www.w3.org/1999/xlink">
<g><path style="opacity:1" fill="#3156aa" d="M 62.5,-0.5 C 63.1667,-0.5 63.8333,-0.5 64.5,-0.5C 69.1232,5.29422 73.9565,10.9609 79,16.5C 94.3957,31.7284 109.562,47.0617 124.5,62.5C 124.5,63.5 124.5,64.5 124.5,65.5C 123.603,66.5981 122.77,66.5981 122,65.5C 114.5,73 107,80.5 99.5,88C 101.167,88.3333 102.833,88.6667 104.5,89C 105.059,89.7247 105.392,90.5581 105.5,91.5C 104.273,94.7315 102.606,97.7315 100.5,100.5C 101.767,102.371 101.767,104.204 100.5,106C 97.5716,105.544 94.5716,105.544 91.5,106C 88.7315,109.261 86.0648,109.094 83.5,105.5C 75.8576,110.143 69.5242,116.143 64.5,123.5C 63.5,123.5 62.5,123.5 61.5,123.5C 56.0038,117.171 50.0038,111.337 43.5,106C 37.1528,105.638 30.8194,105.305 24.5,105C 24.3362,102.301 24.1695,99.4679 24,96.5C 21.9824,94.6499 20.1491,92.6499 18.5,90.5C 20.0031,88.5784 22.0031,87.4117 24.5,87C 15.937,78.6049 7.60366,70.1049 -0.5,61.5C -0.5,61.1667 -0.5,60.8333 -0.5,60.5C 21.119,40.8475 42.119,20.5141 62.5,-0.5 Z"/></g>
<g><path style="opacity:1" fill="#214784" d="M 74.5,81.5 C 76.099,81.7678 77.4324,81.4345 78.5,80.5C 79.1174,80.6107 79.6174,80.944 80,81.5C 79.6692,79.9813 79.8359,78.648 80.5,77.5C 81.3414,79.3792 81.6747,81.3792 81.5,83.5C 75.31,83.1771 69.31,83.5104 63.5,84.5C 61.8333,84.5 60.1667,84.5 58.5,84.5C 58.2172,83.7109 57.7172,83.0442 57,82.5C 55.0937,83.1311 53.0937,83.4644 51,83.5C 48.7047,83.4535 46.8714,82.7868 45.5,81.5C 46.9587,81.5674 48.2921,81.2341 49.5,80.5C 51.5,80.5 53.5,80.5 55.5,80.5C 56.0447,76.8284 56.3781,77.1617 56.5,81.5C 59.8595,82.2096 61.6929,80.8762 62,77.5C 62.2189,78.938 62.7189,80.2713 63.5,81.5C 67.0722,81.9787 70.7389,81.9787 74.5,81.5 Z"/></g>
<g><path style="opacity:1" fill="#8191b2" d="M 48.5,77.5 C 48.8333,77.5 49.1667,77.5 49.5,77.5C 50.3764,77.3691 51.0431,77.7025 51.5,78.5C 50.7573,79.1818 50.0906,79.8485 49.5,80.5C 48.2921,81.2341 46.9587,81.5674 45.5,81.5C 44.8333,81.5 44.5,81.1667 44.5,80.5C 45.397,79.4019 46.2303,79.4019 47,80.5C 47.2321,79.2625 47.7321,78.2625 48.5,77.5 Z"/></g>
<g><path style="opacity:1" fill="#e1e7ef" d="M 75.5,76.5 C 77.4147,76.2155 79.0813,76.5489 80.5,77.5C 79.8359,78.648 79.6692,79.9813 80,81.5C 79.6174,80.944 79.1174,80.6107 78.5,80.5C 77.603,79.4019 76.7697,79.4019 76,80.5C 75.51,79.2068 75.3433,77.8734 75.5,76.5 Z"/></g>
<g><path style="opacity:1" fill="#7f93b8" d="M 73.5,76.5 C 74.1667,76.5 74.8333,76.5 75.5,76.5C 75.3433,77.8734 75.51,79.2068 76,80.5C 76.7697,79.4019 77.603,79.4019 78.5,80.5C 77.4324,81.4345 76.099,81.7678 74.5,81.5C 73.9935,80.1411 72.9935,79.1411 71.5,78.5C 72.2427,77.8182 72.9094,77.1515 73.5,76.5 Z"/></g>
<g><path style="opacity:1" fill="#bfc9da" d="M 49.5,77.5 C 51.665,76.0645 53.165,76.7312 54,79.5C 54.4828,78.552 54.6495,77.552 54.5,76.5C 55.8333,76.5 57.1667,76.5 58.5,76.5C 58.8333,80.5 59.1667,80.5 59.5,76.5C 64.3236,76.9053 68.9902,76.9053 73.5,76.5C 72.9094,77.1515 72.2427,77.8182 71.5,78.5C 72.9935,79.1411 73.9935,80.1411 74.5,81.5C 70.7389,81.9787 67.0722,81.9787 63.5,81.5C 62.7189,80.2713 62.2189,78.938 62,77.5C 61.6929,80.8762 59.8595,82.2096 56.5,81.5C 56.3781,77.1617 56.0447,76.8284 55.5,80.5C 53.5,80.5 51.5,80.5 49.5,80.5C 50.0906,79.8485 50.7573,79.1818 51.5,78.5C 51.0431,77.7025 50.3764,77.3691 49.5,77.5 Z"/></g>
<g><path style="opacity:1" fill="#e3e9f3" d="M 44.5,76.5 C 46.099,76.2322 47.4324,76.5655 48.5,77.5C 47.7321,78.2625 47.2321,79.2625 47,80.5C 46.2303,79.4019 45.397,79.4019 44.5,80.5C 44.5,79.1667 44.5,77.8333 44.5,76.5 Z"/></g>
<g><path style="opacity:1" fill="#2e67c1" d="M 98.5,69.5 C 99.4682,71.6074 99.8016,73.9407 99.5,76.5C 96.1667,80.1667 92.8333,83.8333 89.5,87.5C 88.4062,88.5817 87.0729,89.2483 85.5,89.5C 81.6272,87.8911 77.6272,86.8911 73.5,86.5C 70.4115,85.2154 67.0781,84.5488 63.5,84.5C 69.31,83.5104 75.31,83.1771 81.5,83.5C 81.6747,81.3792 81.3414,79.3792 80.5,77.5C 79.0813,76.5489 77.4147,76.2155 75.5,76.5C 74.8333,76.5 74.1667,76.5 73.5,76.5C 68.9902,76.9053 64.3236,76.9053 59.5,76.5C 59.1667,80.5 58.8333,80.5 58.5,76.5C 57.1667,76.5 55.8333,76.5 54.5,76.5C 54.6495,77.552 54.4828,78.552 54,79.5C 53.165,76.7312 51.665,76.0645 49.5,77.5C 49.1667,77.5 48.8333,77.5 48.5,77.5C 47.4324,76.5655 46.099,76.2322 44.5,76.5C 44.8333,75.8333 45.1667,75.1667 45.5,74.5C 53.9908,74.9698 62.3241,74.3032 70.5,72.5C 71.9972,73.3058 73.6639,73.9724 75.5,74.5C 83.0708,74.3496 90.7375,74.3496 98.5,74.5C 98.5,72.8333 98.5,71.1667 98.5,69.5 Z"/></g>
<g><path style="opacity:1" fill="#1f427a" d="M 71.5,69.5 C 71.8333,69.5 72.1667,69.5 72.5,69.5C 73.2604,72.9599 74.7604,73.2932 77,70.5C 77.8159,71.8228 78.9826,72.4894 80.5,72.5C 81.1667,72.5 81.8333,72.5 82.5,72.5C 85.3467,72.2176 88.0134,72.2176 90.5,72.5C 91.3857,71.675 91.719,70.675 91.5,69.5C 91.8333,69.5 92.1667,69.5 92.5,69.5C 92.259,72.999 93.0924,73.3323 95,70.5C 96.5158,73.0515 97.3491,72.7181 97.5,69.5C 97.8333,69.5 98.1667,69.5 98.5,69.5C 98.5,71.1667 98.5,72.8333 98.5,74.5C 90.7375,74.3496 83.0708,74.3496 75.5,74.5C 73.6639,73.9724 71.9972,73.3058 70.5,72.5C 71.404,71.791 71.7373,70.791 71.5,69.5 Z"/></g>
<g><path style="opacity:1" fill="#28487f" d="M 32.5,67.5 C 33.1667,67.5 33.8333,67.5 34.5,67.5C 34.3398,69.1992 34.5065,70.8659 35,72.5C 36.7419,72.2362 37.9086,70.9028 38.5,68.5C 38.147,70.6348 38.9803,71.9681 41,72.5C 43.6106,71.5001 44.1106,69.8334 42.5,67.5C 43.1667,67.5 43.8333,67.5 44.5,67.5C 44.3398,69.1992 44.5065,70.8659 45,72.5C 46,69.8333 47,69.8333 48,72.5C 48.4828,71.552 48.6495,70.552 48.5,69.5C 48.8333,69.5 49.1667,69.5 49.5,69.5C 49.4176,71.2517 50.2509,72.2517 52,72.5C 54.919,71.9161 57.5857,71.9161 60,72.5C 60.4828,71.552 60.6495,70.552 60.5,69.5C 60.8333,69.5 61.1667,69.5 61.5,69.5C 61.281,70.675 61.6143,71.675 62.5,72.5C 63.5,71.1667 64.5,71.1667 65.5,72.5C 66.3857,71.675 66.719,70.675 66.5,69.5C 66.8333,69.5 67.1667,69.5 67.5,69.5C 68.9002,70.1001 69.9002,71.1001 70.5,72.5C 62.3241,74.3032 53.9908,74.9698 45.5,74.5C 40.0557,75.1083 35.0557,74.4417 30.5,72.5C 33.5031,71.83 34.1697,70.1633 32.5,67.5 Z"/></g>
<g><path style="opacity:1" fill="#c5d0e3" d="M 32.5,67.5 C 34.1697,70.1633 33.5031,71.83 30.5,72.5C 30.0934,71.2382 29.76,69.9049 29.5,68.5C 30.325,67.6143 31.325,67.281 32.5,67.5 Z"/></g>
<g><path style="opacity:1" fill="#d0d8e5" d="M 80.5,72.5 C 78.9826,72.4894 77.8159,71.8228 77,70.5C 74.7604,73.2932 73.2604,72.9599 72.5,69.5C 73.8111,66.8669 75.3111,66.8669 77,69.5C 78.1531,67.503 79.6531,67.1696 81.5,68.5C 80.6034,68.6691 79.6034,69.0024 78.5,69.5C 79.376,70.2508 80.376,70.7508 81.5,71C 80.944,71.3826 80.6107,71.8826 80.5,72.5 Z"/></g>
<g><path style="opacity:1" fill="#ccd4e1" d="M 66.5,69.5 C 66.719,70.675 66.3857,71.675 65.5,72.5C 64.5,71.1667 63.5,71.1667 62.5,72.5C 61.6143,71.675 61.281,70.675 61.5,69.5C 61.3691,68.6236 61.7025,67.9569 62.5,67.5C 63.5,68.8333 64.5,68.8333 65.5,67.5C 66.2975,67.9569 66.6309,68.6236 66.5,69.5 Z"/></g>
<g><path style="opacity:1" fill="#cdd5e3" d="M 60.5,69.5 C 60.6495,70.552 60.4828,71.552 60,72.5C 57.5857,71.9161 54.919,71.9161 52,72.5C 50.2509,72.2517 49.4176,71.2517 49.5,69.5C 49.8656,68.3054 50.699,67.6387 52,67.5C 53.3333,68.8333 54.6667,68.8333 56,67.5C 56.9454,67.9054 57.6121,68.572 58,69.5C 59.0712,66.8875 59.9045,66.8875 60.5,69.5 Z"/></g>
<g><path style="opacity:1" fill="#dfe5ef" d="M 44.5,67.5 C 45.6879,68.6843 46.8545,68.6843 48,67.5C 48.4643,68.0944 48.631,68.7611 48.5,69.5C 48.6495,70.552 48.4828,71.552 48,72.5C 47,69.8333 46,69.8333 45,72.5C 44.5065,70.8659 44.3398,69.1992 44.5,67.5 Z"/></g>
<g><path style="opacity:1" fill="#c5cedf" d="M 84.5,67.5 C 86.674,67.9202 88.674,67.9202 90.5,67.5C 91.2975,67.9569 91.6309,68.6236 91.5,69.5C 91.719,70.675 91.3857,71.675 90.5,72.5C 88.0134,72.2176 85.3467,72.2176 82.5,72.5C 82.3398,70.8008 82.5065,69.1341 83,67.5C 83.69,68.7383 84.19,68.7383 84.5,67.5 Z"/></g>
<g><path style="opacity:1" fill="#cbd3e2" d="M 42.5,67.5 C 44.1106,69.8334 43.6106,71.5001 41,72.5C 38.9803,71.9681 38.147,70.6348 38.5,68.5C 39.7079,67.7659 41.0413,67.4326 42.5,67.5 Z"/></g>
<g><path style="opacity:1" fill="#e4eaf3" d="M 34.5,67.5 C 35.8736,67.7921 37.2069,68.1254 38.5,68.5C 37.9086,70.9028 36.7419,72.2362 35,72.5C 34.5065,70.8659 34.3398,69.1992 34.5,67.5 Z"/></g>
<g><path style="opacity:1" fill="#c6d0e1" d="M 97.5,69.5 C 97.3491,72.7181 96.5158,73.0515 95,70.5C 93.0924,73.3323 92.259,72.999 92.5,69.5C 94.1667,64.1667 95.8333,64.1667 97.5,69.5 Z"/></g>
<g><path style="opacity:1" fill="#f6f7f9" d="M 71.5,69.5 C 71.7373,70.791 71.404,71.791 70.5,72.5C 69.9002,71.1001 68.9002,70.1001 67.5,69.5C 67.684,67.0752 68.3507,67.0752 69.5,69.5C 70.6493,67.0752 71.316,67.0752 71.5,69.5 Z"/></g>
<g><path style="opacity:1" fill="#4a75bd" d="M 44.5,67.5 C 44.5,67.1667 44.5,66.8333 44.5,66.5C 57.8333,66.5 71.1667,66.5 84.5,66.5C 84.5,66.8333 84.5,67.1667 84.5,67.5C 84.19,68.7383 83.69,68.7383 83,67.5C 82.5065,69.1341 82.3398,70.8008 82.5,72.5C 81.8333,72.5 81.1667,72.5 80.5,72.5C 80.6107,71.8826 80.944,71.3826 81.5,71C 80.376,70.7508 79.376,70.2508 78.5,69.5C 79.6034,69.0024 80.6034,68.6691 81.5,68.5C 79.6531,67.1696 78.1531,67.503 77,69.5C 75.3111,66.8669 73.8111,66.8669 72.5,69.5C 72.1667,69.5 71.8333,69.5 71.5,69.5C 71.316,67.0752 70.6493,67.0752 69.5,69.5C 68.3507,67.0752 67.684,67.0752 67.5,69.5C 67.1667,69.5 66.8333,69.5 66.5,69.5C 66.6309,68.6236 66.2975,67.9569 65.5,67.5C 64.5,68.8333 63.5,68.8333 62.5,67.5C 61.7025,67.9569 61.3691,68.6236 61.5,69.5C 61.1667,69.5 60.8333,69.5 60.5,69.5C 59.9045,66.8875 59.0712,66.8875 58,69.5C 57.6121,68.572 56.9454,67.9054 56,67.5C 54.6667,68.8333 53.3333,68.8333 52,67.5C 50.699,67.6387 49.8656,68.3054 49.5,69.5C 49.1667,69.5 48.8333,69.5 48.5,69.5C 48.631,68.7611 48.4643,68.0944 48,67.5C 46.8545,68.6843 45.6879,68.6843 44.5,67.5 Z"/></g>
<g><path style="opacity:1" fill="#1d4886" d="M 79.5,41.5 C 80.2216,41.9175 80.7216,42.5842 81,43.5C 82.2728,51.1513 83.4394,58.8179 84.5,66.5C 71.1667,66.5 57.8333,66.5 44.5,66.5C 43.5,66.5 42.5,66.5 41.5,66.5C 41.5,65.5 41.5,64.5 41.5,63.5C 47.8421,63.6662 54.1754,63.4995 60.5,63C 61.056,62.6174 61.3893,62.1174 61.5,61.5C 62.4916,61.3284 63.1583,61.6618 63.5,62.5C 69.6446,63.4902 75.9779,63.8235 82.5,63.5C 81.2832,56.1986 80.2832,48.8652 79.5,41.5 Z"/></g>
<g><path style="opacity:1" fill="#ebedf1" d="M 3.5,62.5 C 6.45517,63.1587 9.45517,63.4921 12.5,63.5C 21.534,71.5332 29.8674,80.1999 37.5,89.5C 34.8682,87.8866 32.2016,86.22 29.5,84.5C 28.7348,85.6119 27.7348,86.2786 26.5,86.5C 18.1321,79.1329 10.4654,71.1329 3.5,62.5 Z"/></g>
<g><path style="opacity:1" fill="#696867" d="M 112.5,64.5 C 112.833,63.8333 113.167,63.1667 113.5,62.5C 115.823,61.4179 118.157,61.5846 120.5,63C 117.986,64.2525 115.32,64.7525 112.5,64.5 Z"/></g>
<g><path style="opacity:1" fill="#527da3" d="M 44.5,41.5 C 45.1667,41.5 45.8333,41.5 46.5,41.5C 45.4282,46.4049 44.7615,51.4049 44.5,56.5C 43.776,58.2184 43.1094,60.0517 42.5,62C 48.1667,62.6667 53.8333,62.6667 59.5,62C 58.944,61.6174 58.6107,61.1174 58.5,60.5C 59.1667,60.5 59.8333,60.5 60.5,60.5C 60.5,61.1667 60.8333,61.5 61.5,61.5C 61.3893,62.1174 61.056,62.6174 60.5,63C 54.1754,63.4995 47.8421,63.6662 41.5,63.5C 42.7596,56.2019 43.7596,48.8685 44.5,41.5 Z"/></g>
<g><path style="opacity:1" fill="#71737a" d="M 11.5,60.5 C 11.5569,61.609 11.8902,62.609 12.5,63.5C 9.45517,63.4921 6.45517,63.1587 3.5,62.5C 5.83825,60.9605 8.50492,60.2938 11.5,60.5 Z"/></g>
<g><path style="opacity:1" fill="#a1b5c0" d="M 65.5,48.5 C 65.8333,48.5 66.1667,48.5 66.5,48.5C 66.2148,50.288 66.5481,51.9547 67.5,53.5C 68.5174,50.972 69.6841,50.972 71,53.5C 71.3988,53.2716 71.5654,52.9382 71.5,52.5C 73.1042,53.287 73.7709,54.6203 73.5,56.5C 69.8333,56.5 66.1667,56.5 62.5,56.5C 62.5,57.8333 62.5,59.1667 62.5,60.5C 68.1274,59.7092 73.794,59.7092 79.5,60.5C 79.5,59.1667 79.5,57.8333 79.5,56.5C 80.4511,57.9187 80.7845,59.5853 80.5,61.5C 74.8623,62.2197 69.1956,62.553 63.5,62.5C 63.1583,61.6618 62.4916,61.3284 61.5,61.5C 60.8333,61.5 60.5,61.1667 60.5,60.5C 61.1386,59.9032 61.472,59.0698 61.5,58C 60.9265,56.3933 60.2598,54.8933 59.5,53.5C 63.3491,53.9807 65.3491,52.314 65.5,48.5 Z"/></g>
<g><path style="opacity:1" fill="#a3c1cd" d="M 44.5,56.5 C 44.3398,58.1992 44.5065,59.8659 45,61.5C 49.4713,59.9763 53.9713,59.643 58.5,60.5C 58.6107,61.1174 58.944,61.6174 59.5,62C 53.8333,62.6667 48.1667,62.6667 42.5,62C 43.1094,60.0517 43.776,58.2184 44.5,56.5 Z"/></g>
<g><path style="opacity:1" fill="#e3ebf6" d="M 51.5,40.5 C 60.1544,40.6712 68.8211,41.0046 77.5,41.5C 78.3613,46.4334 79.028,51.4334 79.5,56.5C 79.5,57.8333 79.5,59.1667 79.5,60.5C 73.794,59.7092 68.1274,59.7092 62.5,60.5C 62.5,59.1667 62.5,57.8333 62.5,56.5C 66.1667,56.5 69.8333,56.5 73.5,56.5C 73.7709,54.6203 73.1042,53.287 71.5,52.5C 70.7007,49.9588 70.7007,47.6255 71.5,45.5C 70.5224,45.9767 69.6891,46.6433 69,47.5C 67.4842,44.9485 66.6509,45.2819 66.5,48.5C 66.1667,48.5 65.8333,48.5 65.5,48.5C 63.4815,45.0709 61.1482,44.7376 58.5,47.5C 58.1667,47.5 57.8333,47.5 57.5,47.5C 57.0296,46.3065 56.0296,45.6399 54.5,45.5C 53.5,45.8333 52.5,46.1667 51.5,46.5C 52.9118,48.7596 53.9118,51.0929 54.5,53.5C 54.8212,55.0481 55.8212,55.7148 57.5,55.5C 57.2155,53.5853 57.5489,51.9187 58.5,50.5C 58.5569,51.609 58.8902,52.609 59.5,53.5C 60.2598,54.8933 60.9265,56.3933 61.5,58C 61.472,59.0698 61.1386,59.9032 60.5,60.5C 59.8333,60.5 59.1667,60.5 58.5,60.5C 53.9713,59.643 49.4713,59.9763 45,61.5C 44.5065,59.8659 44.3398,58.1992 44.5,56.5C 44.7615,51.4049 45.4282,46.4049 46.5,41.5C 48.4147,41.7845 50.0813,41.4511 51.5,40.5 Z"/></g>
<g><path style="opacity:1" fill="#a9b2bb" d="M 57.5,47.5 C 57.8333,47.5 58.1667,47.5 58.5,47.5C 60.0463,47.7239 61.713,48.0573 63.5,48.5C 61.0087,49.5407 61.0087,50.3741 63.5,51C 62.9747,51.6924 62.3081,52.1924 61.5,52.5C 60.7348,51.3881 59.7348,50.7214 58.5,50.5C 57.5489,51.9187 57.2155,53.5853 57.5,55.5C 55.8212,55.7148 54.8212,55.0481 54.5,53.5C 54.9397,51.1561 55.9397,49.1561 57.5,47.5 Z"/></g>
<g><path style="opacity:1" fill="#668faf" d="M 77.5,41.5 C 78.1667,41.5 78.8333,41.5 79.5,41.5C 80.2832,48.8652 81.2832,56.1986 82.5,63.5C 75.9779,63.8235 69.6446,63.4902 63.5,62.5C 69.1956,62.553 74.8623,62.2197 80.5,61.5C 80.7845,59.5853 80.4511,57.9187 79.5,56.5C 79.028,51.4334 78.3613,46.4334 77.5,41.5 Z"/></g>
<g><path style="opacity:1" fill="#4276ca" d="M 65.5,48.5 C 65.3491,52.314 63.3491,53.9807 59.5,53.5C 58.8902,52.609 58.5569,51.609 58.5,50.5C 59.7348,50.7214 60.7348,51.3881 61.5,52.5C 62.3081,52.1924 62.9747,51.6924 63.5,51C 61.0087,50.3741 61.0087,49.5407 63.5,48.5C 61.713,48.0573 60.0463,47.7239 58.5,47.5C 61.1482,44.7376 63.4815,45.0709 65.5,48.5 Z"/></g>
<g><path style="opacity:1" fill="#4f7ecc" d="M 71.5,52.5 C 71.5654,52.9382 71.3988,53.2716 71,53.5C 69.6841,50.972 68.5174,50.972 67.5,53.5C 66.5481,51.9547 66.2148,50.288 66.5,48.5C 66.6509,45.2819 67.4842,44.9485 69,47.5C 69.6891,46.6433 70.5224,45.9767 71.5,45.5C 70.7007,47.6255 70.7007,49.9588 71.5,52.5 Z"/></g>
<g><path style="opacity:1" fill="#467acd" d="M 57.5,47.5 C 55.9397,49.1561 54.9397,51.1561 54.5,53.5C 53.9118,51.0929 52.9118,48.7596 51.5,46.5C 52.5,46.1667 53.5,45.8333 54.5,45.5C 56.0296,45.6399 57.0296,46.3065 57.5,47.5 Z"/></g>
<g><path style="opacity:1" fill="#204b8c" d="M 47.5,32.5 C 48.7525,34.3388 48.7525,36.1722 47.5,38C 50.0638,38.4502 51.5638,37.2836 52,34.5C 53.1339,38.1399 54.1339,37.8065 55,33.5C 55.49,34.7932 55.6567,36.1266 55.5,37.5C 58.2372,37.5987 60.9039,37.2653 63.5,36.5C 68.1917,37.6276 72.8584,37.6276 77.5,36.5C 79.5983,37.9143 80.5983,37.2476 80.5,34.5C 81.4511,35.9187 81.7845,37.5853 81.5,39.5C 71.3194,39.1726 61.3194,39.506 51.5,40.5C 50.0813,41.4511 48.4147,41.7845 46.5,41.5C 45.8333,41.5 45.1667,41.5 44.5,41.5C 45.2625,40.7321 46.2625,40.2321 47.5,40C 46.244,39.5831 45.5774,38.7498 45.5,37.5C 46.1667,37.5 46.5,37.1667 46.5,36.5C 46.2322,34.901 46.5655,33.5676 47.5,32.5 Z"/></g>
<g><path style="opacity:1" fill="#1458c2" d="M 61.5,12.5 C 62.1667,12.5 62.8333,12.5 63.5,12.5C 79.8333,29.5 96.5,46.1667 113.5,62.5C 113.167,63.1667 112.833,63.8333 112.5,64.5C 109.833,66.8333 107.167,69.1667 104.5,71.5C 104.062,71.5654 103.728,71.3988 103.5,71C 106.167,68.3333 108.833,65.6667 111.5,63C 101.298,52.6312 90.9651,42.4645 80.5,32.5C 80.1667,32.5 79.8333,32.5 79.5,32.5C 74.2627,25.7568 68.4294,19.4234 62,13.5C 56.5,19 51,24.5 45.5,30C 44.5632,30.6917 43.8966,30.525 43.5,29.5C 49.5,23.8333 55.5,18.1667 61.5,12.5 Z"/></g>
<g><path style="opacity:1" fill="#9bacc9" d="M 65.5,32.5 C 69.329,32.9274 72.9957,32.9274 76.5,32.5C 76.2322,34.099 76.5655,35.4324 77.5,36.5C 72.8584,37.6276 68.1917,37.6276 63.5,36.5C 67.3107,36.4042 67.3107,35.7376 63.5,34.5C 64.2427,33.8182 64.9094,33.1515 65.5,32.5 Z"/></g>
<g><path style="opacity:1" fill="#2a69c6" d="M 80.5,32.5 C 90.9651,42.4645 101.298,52.6312 111.5,63C 108.833,65.6667 106.167,68.3333 103.5,71C 103.728,71.3988 104.062,71.5654 104.5,71.5C 103.167,73.5 101.5,75.1667 99.5,76.5C 99.8016,73.9407 99.4682,71.6074 98.5,69.5C 98.1667,69.5 97.8333,69.5 97.5,69.5C 95.8333,64.1667 94.1667,64.1667 92.5,69.5C 92.1667,69.5 91.8333,69.5 91.5,69.5C 91.6309,68.6236 91.2975,67.9569 90.5,67.5C 88.674,67.9202 86.674,67.9202 84.5,67.5C 84.5,67.1667 84.5,66.8333 84.5,66.5C 83.4394,58.8179 82.2728,51.1513 81,43.5C 80.7216,42.5842 80.2216,41.9175 79.5,41.5C 78.8333,41.5 78.1667,41.5 77.5,41.5C 68.8211,41.0046 60.1544,40.6712 51.5,40.5C 61.3194,39.506 71.3194,39.1726 81.5,39.5C 81.7845,37.5853 81.4511,35.9187 80.5,34.5C 80.5,33.8333 80.5,33.1667 80.5,32.5 Z"/></g>
<g><path style="opacity:1" fill="#8b9ab3" d="M 79.5,32.5 C 79.8333,32.5 80.1667,32.5 80.5,32.5C 80.5,33.1667 80.5,33.8333 80.5,34.5C 80.5983,37.2476 79.5983,37.9143 77.5,36.5C 78.6005,35.3951 79.2671,34.0618 79.5,32.5 Z"/></g>
<g><path style="opacity:1" fill="#bec9dd" d="M 47.5,32.5 C 48.7498,32.5774 49.5831,33.244 50,34.5C 53.5441,31.9319 57.2107,31.9319 61,34.5C 62.3002,33.2927 63.8002,32.6261 65.5,32.5C 64.9094,33.1515 64.2427,33.8182 63.5,34.5C 67.3107,35.7376 67.3107,36.4042 63.5,36.5C 60.9039,37.2653 58.2372,37.5987 55.5,37.5C 55.6567,36.1266 55.49,34.7932 55,33.5C 54.1339,37.8065 53.1339,38.1399 52,34.5C 51.5638,37.2836 50.0638,38.4502 47.5,38C 48.7525,36.1722 48.7525,34.3388 47.5,32.5 Z"/></g>
<g><path style="opacity:1" fill="#2967c6" d="M 41.5,31.5 C 42.3229,33.8046 43.6563,35.8046 45.5,37.5C 45.5774,38.7498 46.244,39.5831 47.5,40C 46.2625,40.2321 45.2625,40.7321 44.5,41.5C 43.7596,48.8685 42.7596,56.2019 41.5,63.5C 41.5,64.5 41.5,65.5 41.5,66.5C 42.5,66.5 43.5,66.5 44.5,66.5C 44.5,66.8333 44.5,67.1667 44.5,67.5C 43.8333,67.5 43.1667,67.5 42.5,67.5C 41.0413,67.4326 39.7079,67.7659 38.5,68.5C 37.2069,68.1254 35.8736,67.7921 34.5,67.5C 33.8333,67.5 33.1667,67.5 32.5,67.5C 31.325,67.281 30.325,67.6143 29.5,68.5C 29.76,69.9049 30.0934,71.2382 30.5,72.5C 35.0557,74.4417 40.0557,75.1083 45.5,74.5C 45.1667,75.1667 44.8333,75.8333 44.5,76.5C 44.5,77.8333 44.5,79.1667 44.5,80.5C 44.5,81.1667 44.8333,81.5 45.5,81.5C 46.8714,82.7868 48.7047,83.4535 51,83.5C 53.0937,83.4644 55.0937,83.1311 57,82.5C 57.7172,83.0442 58.2172,83.7109 58.5,84.5C 54.7802,84.5642 51.1135,85.0642 47.5,86C 44.2416,87.4665 40.9083,88.6332 37.5,89.5C 29.8674,80.1999 21.534,71.5332 12.5,63.5C 11.8902,62.609 11.5569,61.609 11.5,60.5C 21.5266,50.8058 31.5266,41.1392 41.5,31.5 Z"/></g>
<g><path style="opacity:1" fill="#edf1f7" d="M 76.5,32.5 C 77.5,33.8333 78.5,33.8333 79.5,32.5C 79.2671,34.0618 78.6005,35.3951 77.5,36.5C 76.5655,35.4324 76.2322,34.099 76.5,32.5 Z"/></g>
<g><path style="opacity:1" fill="#f1f5fa" d="M 47.5,32.5 C 46.5655,33.5676 46.2322,34.901 46.5,36.5C 45.8969,34.8103 44.8969,33.3103 43.5,32C 45.0657,31.235 46.3991,31.4017 47.5,32.5 Z"/></g>
<g><path style="opacity:1" fill="#306bc8" d="M 79.5,32.5 C 78.5,33.8333 77.5,33.8333 76.5,32.5C 72.9957,32.9274 69.329,32.9274 65.5,32.5C 63.8002,32.6261 62.3002,33.2927 61,34.5C 57.2107,31.9319 53.5441,31.9319 50,34.5C 49.5831,33.244 48.7498,32.5774 47.5,32.5C 46.3991,31.4017 45.0657,31.235 43.5,32C 44.8969,33.3103 45.8969,34.8103 46.5,36.5C 46.5,37.1667 46.1667,37.5 45.5,37.5C 43.6563,35.8046 42.3229,33.8046 41.5,31.5C 41.8333,30.5 42.5,29.8333 43.5,29.5C 43.8966,30.525 44.5632,30.6917 45.5,30C 51,24.5 56.5,19 62,13.5C 68.4294,19.4234 74.2627,25.7568 79.5,32.5 Z"/></g>
<g><path style="opacity:1" fill="#6f6f71" d="M 62.5,4.5 C 64.6395,6.88139 64.9729,9.54805 63.5,12.5C 62.8333,12.5 62.1667,12.5 61.5,12.5C 61.5751,9.79384 61.9084,7.12717 62.5,4.5 Z"/></g>
<g><path style="opacity:1" fill="#f1f2f5" d="M 62.5,4.5 C 62.5,3.83333 62.8333,3.5 63.5,3.5C 83.5601,22.8935 103.227,42.5601 122.5,62.5C 114.479,71.1877 106.146,79.521 97.5,87.5C 96.8444,86.7222 96.0111,86.0556 95,85.5C 93.3745,86.2887 91.8745,87.2887 90.5,88.5C 89.8933,88.3764 89.56,88.0431 89.5,87.5C 92.8333,83.8333 96.1667,80.1667 99.5,76.5C 101.5,75.1667 103.167,73.5 104.5,71.5C 107.167,69.1667 109.833,66.8333 112.5,64.5C 115.32,64.7525 117.986,64.2525 120.5,63C 118.157,61.5846 115.823,61.4179 113.5,62.5C 96.5,46.1667 79.8333,29.5 63.5,12.5C 64.9729,9.54805 64.6395,6.88139 62.5,4.5 Z"/></g>
<g><path style="opacity:1" fill="#f4f6f9" d="M 63.5,3.5 C 62.8333,3.5 62.5,3.83333 62.5,4.5C 61.9084,7.12717 61.5751,9.79384 61.5,12.5C 55.5,18.1667 49.5,23.8333 43.5,29.5C 42.5,29.8333 41.8333,30.5 41.5,31.5C 31.5266,41.1392 21.5266,50.8058 11.5,60.5C 8.50492,60.2938 5.83825,60.9605 3.5,62.5C 2.71087,62.2172 2.0442,61.7172 1.5,61C 21.8844,42.1266 41.8844,22.7933 61.5,3C 62.4368,2.30831 63.1034,2.47498 63.5,3.5 Z"/></g>
<g><path style="opacity:1" fill="#727173" d="M 37.5,89.5 C 40.9083,88.6332 44.2416,87.4665 47.5,86C 51.1135,85.0642 54.7802,84.5642 58.5,84.5C 60.1667,84.5 61.8333,84.5 63.5,84.5C 67.0781,84.5488 70.4115,85.2154 73.5,86.5C 63.368,85.9581 53.368,86.7914 43.5,89C 39.4234,90.7869 35.59,92.9536 32,95.5C 32.0579,97.4354 32.8912,99.1021 34.5,100.5C 34.1667,100.5 33.8333,100.5 33.5,100.5C 30.2288,98.6328 29.2288,95.9662 30.5,92.5C 30.0431,91.7025 29.3764,91.3691 28.5,91.5C 28.6716,90.5084 28.3382,89.8417 27.5,89.5C 27.4431,88.391 27.1098,87.391 26.5,86.5C 27.7348,86.2786 28.7348,85.6119 29.5,84.5C 32.2016,86.22 34.8682,87.8866 37.5,89.5 Z"/></g>
<g><path style="opacity:1" fill="#2464cb" d="M 28.5,91.5 C 29.3764,91.3691 30.0431,91.7025 30.5,92.5C 29.2288,95.9662 30.2288,98.6328 33.5,100.5C 32.0813,101.451 30.4147,101.784 28.5,101.5C 28.8738,98.0283 27.8738,95.0283 25.5,92.5C 26.325,91.6143 27.325,91.281 28.5,91.5 Z"/></g>
<g><path style="opacity:1" fill="#2f68c4" d="M 73.5,86.5 C 79.718,88.9423 85.718,91.9423 91.5,95.5C 91.8333,96 92.1667,96.5 92.5,97C 91.6854,98.6434 90.6854,100.143 89.5,101.5C 88.1805,102.942 86.5138,103.608 84.5,103.5C 83.4863,102.326 82.153,101.66 80.5,101.5C 82.4478,100.869 84.2811,99.8688 86,98.5C 86.765,96.9343 86.5983,95.6009 85.5,94.5C 84.089,92.461 82.089,91.461 79.5,91.5C 78.8333,91.1667 78.1667,90.8333 77.5,90.5C 75.5156,89.3058 73.5156,89.3058 71.5,90.5C 73.1045,92.1789 73.7711,94.1789 73.5,96.5C 73.6716,97.4916 73.3382,98.1583 72.5,98.5C 70.3792,98.6747 68.3792,98.3414 66.5,97.5C 67.0476,95.6064 68.0476,93.9397 69.5,92.5C 69.0431,91.7025 68.3764,91.3691 67.5,91.5C 68.0367,88.8604 67.2034,88.8604 65,91.5C 64.2917,90.6195 63.4584,89.9528 62.5,89.5C 60.6965,88.838 58.6965,88.5046 56.5,88.5C 53.4733,88.2865 50.8066,88.9532 48.5,90.5C 47.5,90.5 46.5,90.5 45.5,90.5C 45.767,92.9653 46.4336,95.2986 47.5,97.5C 47.5,98.1667 47.5,98.8333 47.5,99.5C 46.1667,100.167 44.8333,100.833 43.5,101.5C 41.742,101.877 40.0754,102.544 38.5,103.5C 37.1482,102.476 35.8149,101.476 34.5,100.5C 32.8912,99.1021 32.0579,97.4354 32,95.5C 35.59,92.9536 39.4234,90.7869 43.5,89C 53.368,86.7914 63.368,85.9581 73.5,86.5 Z"/></g>
<g><path style="opacity:1" fill="#d0dbee" d="M 77.5,90.5 C 75.6583,92.1898 74.325,94.1898 73.5,96.5C 73.7711,94.1789 73.1045,92.1789 71.5,90.5C 73.5156,89.3058 75.5156,89.3058 77.5,90.5 Z"/></g>
<g><path style="opacity:1" fill="#dae2ef" d="M 62.5,89.5 C 63.4584,89.9528 64.2917,90.6195 65,91.5C 67.2034,88.8604 68.0367,88.8604 67.5,91.5C 64.4739,96.646 62.8072,96.646 62.5,91.5C 61.4937,90.6043 61.4937,89.9377 62.5,89.5 Z"/></g>
<g><path style="opacity:1" fill="#d9e1ed" d="M 60.5,93.5 C 58.7182,95.6869 56.5515,96.0203 54,94.5C 53.6924,95.3081 53.1924,95.9747 52.5,96.5C 52.3019,93.2148 50.6352,91.5482 47.5,91.5C 48.2907,93.6907 48.2907,95.6907 47.5,97.5C 46.4336,95.2986 45.767,92.9653 45.5,90.5C 46.5,90.5 47.5,90.5 48.5,90.5C 49.8333,90.5 51.1667,90.5 52.5,90.5C 52.3505,91.552 52.5172,92.552 53,93.5C 53.6904,89.8101 55.8571,88.6434 59.5,90C 60.3366,91.0113 60.67,92.1779 60.5,93.5 Z"/></g>
<g><path style="opacity:1" fill="#537ec8" d="M 62.5,89.5 C 61.4937,89.9377 61.4937,90.6043 62.5,91.5C 61.8333,92.1667 61.1667,92.8333 60.5,93.5C 60.67,92.1779 60.3366,91.0113 59.5,90C 55.8571,88.6434 53.6904,89.8101 53,93.5C 52.5172,92.552 52.3505,91.552 52.5,90.5C 51.1667,90.5 49.8333,90.5 48.5,90.5C 50.8066,88.9532 53.4733,88.2865 56.5,88.5C 58.6965,88.5046 60.6965,88.838 62.5,89.5 Z"/></g>
<g><path style="opacity:1" fill="#2d4e83" d="M 55.5,90.5 C 57.3464,90.2222 58.6798,90.8888 59.5,92.5C 58.3112,93.4287 56.9778,93.762 55.5,93.5C 55.5,92.5 55.5,91.5 55.5,90.5 Z"/></g>
<g><path style="opacity:1" fill="#dce4f1" d="M 41.5,91.5 C 45.1021,91.678 45.1021,92.678 41.5,94.5C 42.3085,99.5509 41.6418,99.3842 39.5,94C 40.0556,92.9889 40.7222,92.1556 41.5,91.5 Z"/></g>
<g><path style="opacity:1" fill="#787777" d="M 97.5,87.5 C 97.0472,88.4584 96.3805,89.2917 95.5,90C 96.0944,90.4643 96.7611,90.631 97.5,90.5C 97.5,91.1667 97.5,91.8333 97.5,92.5C 96.127,95.566 94.4603,98.566 92.5,101.5C 91.5,101.5 90.5,101.5 89.5,101.5C 90.6854,100.143 91.6854,98.6434 92.5,97C 92.1667,96.5 91.8333,96 91.5,95.5C 85.718,91.9423 79.718,88.9423 73.5,86.5C 77.6272,86.8911 81.6272,87.8911 85.5,89.5C 87.0729,89.2483 88.4062,88.5817 89.5,87.5C 89.56,88.0431 89.8933,88.3764 90.5,88.5C 91.8745,87.2887 93.3745,86.2887 95,85.5C 96.0111,86.0556 96.8444,86.7222 97.5,87.5 Z"/></g>
<g><path style="opacity:1" fill="#cfcbc4" d="M 97.5,90.5 C 99.604,90.2011 101.604,90.5344 103.5,91.5C 101.437,94.3885 99.6033,97.3885 98,100.5C 97.1455,97.5934 97.9788,95.2601 100.5,93.5C 99.675,92.6143 98.675,92.281 97.5,92.5C 97.5,91.8333 97.5,91.1667 97.5,90.5 Z"/></g>
<g><path style="opacity:1" fill="#264c8b" d="M 60.5,93.5 C 61.1667,92.8333 61.8333,92.1667 62.5,91.5C 62.8072,96.646 64.4739,96.646 67.5,91.5C 68.3764,91.3691 69.0431,91.7025 69.5,92.5C 68.0476,93.9397 67.0476,95.6064 66.5,97.5C 60.0463,97.2318 53.7129,97.8984 47.5,99.5C 47.5,98.8333 47.5,98.1667 47.5,97.5C 48.2907,95.6907 48.2907,93.6907 47.5,91.5C 50.6352,91.5482 52.3019,93.2148 52.5,96.5C 53.1924,95.9747 53.6924,95.3081 54,94.5C 56.5515,96.0203 58.7182,95.6869 60.5,93.5 Z"/></g>
<g><path style="opacity:1" fill="#385ea0" d="M 77.5,90.5 C 78.1667,90.8333 78.8333,91.1667 79.5,91.5C 77.2372,96.2604 78.5705,98.427 83.5,98C 84.8228,97.1841 85.4894,96.0174 85.5,94.5C 86.5983,95.6009 86.765,96.9343 86,98.5C 84.2811,99.8688 82.4478,100.869 80.5,101.5C 77.7428,100.488 75.0761,99.4878 72.5,98.5C 73.3382,98.1583 73.6716,97.4916 73.5,96.5C 74.325,94.1898 75.6583,92.1898 77.5,90.5 Z"/></g>
<g><path style="opacity:1" fill="#d0dae9" d="M 79.5,91.5 C 82.089,91.461 84.089,92.461 85.5,94.5C 85.4894,96.0174 84.8228,97.1841 83.5,98C 78.5705,98.427 77.2372,96.2604 79.5,91.5 Z"/></g>
<g><path style="opacity:1" fill="#2f4e82" d="M 79.5,93.5 C 80.8333,93.5 82.1667,93.5 83.5,93.5C 83.5,94.5 83.5,95.5 83.5,96.5C 82.1667,96.5 80.8333,96.5 79.5,96.5C 79.5,95.5 79.5,94.5 79.5,93.5 Z"/></g>
<g><path style="opacity:1" fill="#2c68c7" d="M 73.5,102.5 C 71.1667,105.167 68.8333,107.833 66.5,110.5C 65.1851,111.476 63.8518,112.476 62.5,113.5C 61.8165,113.137 61.1499,112.804 60.5,112.5C 57.8333,109.167 54.8333,106.167 51.5,103.5C 51.0472,102.542 50.3805,101.708 49.5,101C 56.7265,99.4055 64.0598,99.0722 71.5,100C 72.756,100.417 73.4226,101.25 73.5,102.5 Z"/></g>
<g><path style="opacity:1" fill="#787879" d="M 66.5,97.5 C 68.3792,98.3414 70.3792,98.6747 72.5,98.5C 75.0761,99.4878 77.7428,100.488 80.5,101.5C 82.153,101.66 83.4863,102.326 84.5,103.5C 83.1667,103.5 81.8333,103.5 80.5,103.5C 78.6854,104.63 76.6854,105.296 74.5,105.5C 74.7373,104.209 74.404,103.209 73.5,102.5C 73.4226,101.25 72.756,100.417 71.5,100C 64.0598,99.0722 56.7265,99.4055 49.5,101C 50.3805,101.708 51.0472,102.542 51.5,103.5C 49.029,103.762 46.6957,103.762 44.5,103.5C 43.8333,103.5 43.5,103.167 43.5,102.5C 43.5,102.167 43.5,101.833 43.5,101.5C 44.8333,100.833 46.1667,100.167 47.5,99.5C 53.7129,97.8984 60.0463,97.2318 66.5,97.5 Z"/></g>
<g><path style="opacity:1" fill="#dee3ee" d="M 27.5,89.5 C 28.3382,89.8417 28.6716,90.5084 28.5,91.5C 27.325,91.281 26.325,91.6143 25.5,92.5C 27.8738,95.0283 28.8738,98.0283 28.5,101.5C 30.4147,101.784 32.0813,101.451 33.5,100.5C 33.8333,100.5 34.1667,100.5 34.5,100.5C 35.8149,101.476 37.1482,102.476 38.5,103.5C 40.0754,102.544 41.742,101.877 43.5,101.5C 43.5,101.833 43.5,102.167 43.5,102.5C 41.5266,103.487 39.5266,104.487 37.5,105.5C 34.3848,103.952 31.0514,102.952 27.5,102.5C 26.4473,97.9972 24.4473,93.9972 21.5,90.5C 23.5536,89.1345 25.5536,88.8012 27.5,89.5 Z"/></g>
<g><path style="opacity:1" fill="#f7f8f9" d="M 51.5,103.5 C 54.8333,106.167 57.8333,109.167 60.5,112.5C 60.0766,113.265 59.7432,114.098 59.5,115C 61.2009,116.86 62.2009,119.027 62.5,121.5C 56.1667,115.833 50.1667,109.833 44.5,103.5C 46.6957,103.762 49.029,103.762 51.5,103.5 Z"/></g>
<g><path style="opacity:1" fill="#b2beda" d="M 89.5,101.5 C 90.5,101.5 91.5,101.5 92.5,101.5C 94.5598,102.811 96.7265,102.811 99,101.5C 99.6924,102.025 100.192,102.692 100.5,103.5C 96.1805,104.286 91.8472,104.953 87.5,105.5C 85.9623,105.547 84.9623,104.88 84.5,103.5C 86.5138,103.608 88.1805,102.942 89.5,101.5 Z"/></g>
<g><path style="opacity:1" fill="#edecec" d="M 73.5,102.5 C 74.404,103.209 74.7373,104.209 74.5,105.5C 76.6854,105.296 78.6854,104.63 80.5,103.5C 75.1667,109.5 69.5,115.167 63.5,120.5C 64.597,118.226 65.9304,116.059 67.5,114C 67.0109,112.862 66.6775,111.695 66.5,110.5C 68.8333,107.833 71.1667,105.167 73.5,102.5 Z"/></g>
<g><path style="opacity:1" fill="#878683" d="M 66.5,110.5 C 66.6775,111.695 67.0109,112.862 67.5,114C 65.9304,116.059 64.597,118.226 63.5,120.5C 63.5,121.167 63.1667,121.5 62.5,121.5C 62.2009,119.027 61.2009,116.86 59.5,115C 59.7432,114.098 60.0766,113.265 60.5,112.5C 61.1499,112.804 61.8165,113.137 62.5,113.5C 63.8518,112.476 65.1851,111.476 66.5,110.5 Z"/></g>
</svg>
